<mxfile host="app.diagrams.net" agent="Mozilla/5.0 (Windows NT 10.0; Win64; x64) AppleWebKit/537.36 (KHTML, like Gecko) Chrome/133.0.0.0 Safari/537.36" version="26.1.0">
  <diagram name="Seite-1" id="K2l8MgilflMCcdp5ruNh">
    <mxGraphModel dx="1434" dy="772" grid="1" gridSize="10" guides="1" tooltips="1" connect="1" arrows="1" fold="1" page="1" pageScale="1" pageWidth="2000" pageHeight="900" math="0" shadow="0">
      <root>
        <mxCell id="0" />
        <mxCell id="1" parent="0" />
        <mxCell id="vZi44rwne3J4QW1KmAb9-2" value="" style="shape=image;verticalLabelPosition=bottom;verticalAlign=top;imageAspect=0;aspect=fixed;image=data:image/svg+xml,PHN2ZyB4bWxucz0iaHR0cDovL3d3dy53My5vcmcvMjAwMC9zdmciIGlkPSJjbG91ZC1mb3ItYW5hbHl0aWNzIiB2aWV3Qm94PSIzLjk5ODI5MTk2OTI5OTMxNjQgNC4wMzgwMDIwMTQxNjAxNTYgNDguMDAzMTQzMzEwNTQ2ODc1IDQ3Ljg4NjUxNjU3MTA0NDkyIiB3aWR0aD0iNDguMDAzMTQzMzEwNTQ2ODc1IiBoZWlnaHQ9IjQ3Ljg4NjUxNjU3MTA0NDkyIj48ZGVmcz48c3R5bGU+LmNscy0xe2ZpbGw6IzBhNmVkMTt9LmNscy0ye2ZpbGw6IzA1M2I3MDt9PC9zdHlsZT48L2RlZnM+PHRpdGxlPmNsb3VkLWZvci1hbmFseXRpY3M8L3RpdGxlPjxwYXRoIGNsYXNzPSJjbHMtMSIgZD0iTTI5LDMzLjQ3MSw0MS45NDcsNDYuNDIyQTIzLjMsMjMuMywwLDAsMSwyOSw1MS44NTdhMjguMTA1LDI4LjEwNSwwLDAsMS0zLjg5NCwwQTIzLjA3OCwyMy4wNzgsMCwwLDEsNi44MDgsMzkuOSwyMi41NDcsMjIuNTQ3LDAsMCwxLDQsMjguOTQzLDIyLjc0NSwyMi43NDUsMCwwLDEsOS40MzQsMTMuOTA5YTM2LjU3LDM2LjU3LDAsMCwxLDIuNzE3LTIuNjI2QTIyLjc2LDIyLjc2LDAsMCwxLDI1LjEsNS44NDlWMjkuNjY4WiIvPjxwYXRoIGNsYXNzPSJjbHMtMiIgZD0iTTUwLjY0MSwyMC41MjEsMzAuMzU1LDI5LjQ4Nyw0NC41NzMsNDMuOGwxLjQ0OSwxLjI2OEEyNC4wMywyNC4wMywwLDAsMCw1MiwyOC45NDMsMjYuNDQ4LDI2LjQ0OCwwLDAsMCw1MC42NDEsMjAuNTIxWiIvPjxwYXRoIGNsYXNzPSJjbHMtMiIgZD0iTTQ5LjAxMSwxNi45ODlBMjQuODA5LDI0LjgwOSwwLDAsMCwyOSw0LjAzOFYyNS44NjRMNDcuMiwxNy44WiIvPjwvc3ZnPg==;" vertex="1" parent="1">
          <mxGeometry x="200" y="360" width="48" height="48" as="geometry" />
        </mxCell>
        <mxCell id="vZi44rwne3J4QW1KmAb9-3" value="SAP Analytics&#xa;Cloud" style="shape=image;verticalLabelPosition=bottom;verticalAlign=top;aspect=fixed;imageAspect=0;image=data:image/svg+xml,PHN2ZyB4bWxucz0iaHR0cDovL3d3dy53My5vcmcvMjAwMC9zdmciIGZpbGw9Im5vbmUiIHZpZXdCb3g9IjAgMCAxNiAxNiIgaGVpZ2h0PSIxNiIgd2lkdGg9IjE2Ij4mI3hhOzxjaXJjbGUgc3Ryb2tlLXdpZHRoPSIwLjI4NTcwOCIgc3Ryb2tlPSIjRDVEQUREIiBmaWxsPSJ1cmwoI3BhaW50MF9saW5lYXJfMzUxNF80MDE5NCkiIHI9IjcuODU2OTYiIGN5PSI3Ljk5OTU3IiBjeD0iNy45OTY0Ii8+JiN4YTs8ZyBjbGlwLXBhdGg9InVybCgjY2xpcDBfMzUxNF80MDE5NCkiPiYjeGE7PHBhdGggc3Ryb2tlLXdpZHRoPSIwLjk5OTk5OSIgc3Ryb2tlPSJ1cmwoI3BhaW50MV9saW5lYXJfMzUxNF80MDE5NCkiIGQ9Ik02LjI2MDMzIDMuODQ3OTZDNi44NzE2MSAzLjU5MjMxIDcuNTI5NTggMy40NzU2OSA4LjE4NzAzIDMuNTAzNTRDOC4xOTU0NSAzLjUwMzkgOC4xOTkzOSAzLjUwNTY5IDguMjAxNzIgMy41MDY5N0M4LjIwNDc3IDMuNTA4NjUgOC4yMSAzLjUxMjM5IDguMjE1ODEgMy41MjAyNEM4LjIyODE1IDMuNTM2OSA4LjIzODM2IDMuNTY2MTIgOC4yMzIyNSAzLjYwMjM0TDcuNTg4MjYgNy40MTQ4MkM3LjQ5OTQ2IDcuOTQwNSA3Ljc5MTg0IDguNDU2MzMgOC4yODg0OCA4LjY1MDE5TDExLjg5MDMgMTAuMDU2MUMxMS45MjQ1IDEwLjA2OTUgMTEuOTQ0MyAxMC4wOTMyIDExLjk1MjMgMTAuMTEyNEMxMS45NTYgMTAuMTIxNCAxMS45NTY2IDEwLjEyNzggMTEuOTU2NCAxMC4xMzEzQzExLjk1NjMgMTAuMTM0IDExLjk1NTkgMTAuMTM4MiAxMS45NTE4IDEwLjE0NTdDMTEuNjM4IDEwLjcyNCAxMS4yIDExLjIyODcgMTAuNjY2NiAxMS42MjE4QzkuOTgxNzQgMTIuMTI2NiA5LjE2NzgxIDEyLjQyNjkgOC4zMTkxOSAxMi40ODc5QzcuNDcwNTggMTIuNTQ4OSA2LjYyMjA2IDEyLjM2ODEgNS44NzIwNCAxMS45NjY0QzUuMTIyMDMgMTEuNTY0NyA0LjUwMTI1IDEwLjk1ODcgNC4wODE3MiAxMC4yMTg1QzMuNjYyMTggOS40NzgzIDMuNDYxMDggOC42MzQzNiAzLjUwMTcyIDcuNzg0NTNDMy41NDIzNyA2LjkzNDcgMy44MjMxIDYuMTEzOCA0LjMxMTM2IDUuNDE3MDRDNC43OTk2MiA0LjcyMDI5IDUuNDc1NCA0LjE3NjIyIDYuMjYwMzMgMy44NDc5NloiLz4mI3hhOzxwYXRoIGZpbGw9InVybCgjcGFpbnQyX2xpbmVhcl8zNTE0XzQwMTk0KSIgZD0iTTEyLjIxNDEgOC41MTExQzEyLjU4MDggOC42NTI0IDEyLjk4NzcgOC40MjI5NSAxMi45OTU1IDguMDMwMDZDMTIuOTk4NSA3Ljg4MDY2IDEyLjk5NDYgNy43MzA5MSAxMi45ODM3IDcuNTgxMjVDMTIuOTMwNSA2Ljg1MDM4IDEyLjcxMjQgNi4xNDA0MSAxMi4zNDU0IDUuNTAzMDlDMTEuOTc4MyA0Ljg2NTc3IDExLjQ3MTUgNC4zMTcxNSAxMC44NjE5IDMuODk3MjNDMTAuNzM1OSAzLjgxMDQ0IDEwLjYwNjIgMy43Mjk2IDEwLjQ3MzIgMy42NTQ4OUMxMC4xMzAzIDMuNDYyMzIgOS43MjQ5IDMuNjk0OTIgOS42NTkwNSA0LjA4MjU5TDkuMTk1NjQgNi44MTA4NkM5LjE0NTg0IDcuMTA0MDcgOS4zMDk1NiA3LjM5MTc2IDkuNTg3MDggNy40OTg3MUwxMi4yMTQxIDguNTExMVoiIGNsaXAtcnVsZT0iZXZlbm9kZCIgZmlsbC1ydWxlPSJldmVub2RkIi8+JiN4YTs8L2c+JiN4YTs8ZGVmcz4mI3hhOzxsaW5lYXJHcmFkaWVudCBncmFkaWVudFVuaXRzPSJ1c2VyU3BhY2VPblVzZSIgeTI9IjE0Ljc0NzUiIHgyPSIxMy42ODQ0IiB5MT0iMi4yNzA2NSIgeDE9IjEuNDQ3NSIgaWQ9InBhaW50MF9saW5lYXJfMzUxNF80MDE5NCI+JiN4YTs8c3RvcCBzdG9wLWNvbG9yPSJ3aGl0ZSIvPiYjeGE7PHN0b3Agc3RvcC1jb2xvcj0iI0VBRUNFRSIgb2Zmc2V0PSIxIi8+JiN4YTs8L2xpbmVhckdyYWRpZW50PiYjeGE7PGxpbmVhckdyYWRpZW50IGdyYWRpZW50VW5pdHM9InVzZXJTcGFjZU9uVXNlIiB5Mj0iMTEuMTEwOSIgeDI9IjExLjQwNiIgeTE9IjQuNDk0OTUiIHgxPSI0LjQxNDY2IiBpZD0icGFpbnQxX2xpbmVhcl8zNTE0XzQwMTk0Ij4mI3hhOzxzdG9wIHN0b3AtY29sb3I9IiMwMTk1RkYiLz4mI3hhOzxzdG9wIHN0b3AtY29sb3I9IiMxMTQ3RTkiIG9mZnNldD0iMC45OTEwMjgiLz4mI3hhOzwvbGluZWFyR3JhZGllbnQ+JiN4YTs8bGluZWFyR3JhZGllbnQgZ3JhZGllbnRVbml0cz0idXNlclNwYWNlT25Vc2UiIHkyPSI2LjkwNTc3IiB4Mj0iMTMuMTExMSIgeTE9IjQuMzE2NzEiIHgxPSI5Ljc1MDAxIiBpZD0icGFpbnQyX2xpbmVhcl8zNTE0XzQwMTk0Ij4mI3hhOzxzdG9wIHN0b3AtY29sb3I9IiMxMzQ4RkYiLz4mI3hhOzxzdG9wIHN0b3AtY29sb3I9IiMwNjIzOEQiIG9mZnNldD0iMSIvPiYjeGE7PC9saW5lYXJHcmFkaWVudD4mI3hhOzxjbGlwUGF0aCBpZD0iY2xpcDBfMzUxNF80MDE5NCI+JiN4YTs8cmVjdCB0cmFuc2Zvcm09InRyYW5zbGF0ZSgyLjk5NjU4IDIuOTk5NTEpIiBmaWxsPSJ3aGl0ZSIgaGVpZ2h0PSI5Ljk5OTk5IiB3aWR0aD0iOS45OTk5OSIvPiYjeGE7PC9jbGlwUGF0aD4mI3hhOzwvZGVmcz4mI3hhOzwvc3ZnPg==;points=[[0,0,0,0,0],[0,0.25,0,0,0],[0,0.5,0,0,0],[0,0.75,0,0,0],[0.25,0,0,0,0],[0.5,0,0,0,0],[0.75,0,0,0,0],[1,0,0,0,0],[1,0.25,0,0,0],[1,0.5,0,0,0],[1,0.75,0,0,0]];fontStyle=1;fontColor=#1D2D3E;fontSize=14;" vertex="1" parent="1">
          <mxGeometry x="646" y="90" width="48" height="48" as="geometry" />
        </mxCell>
        <mxCell id="vZi44rwne3J4QW1KmAb9-4" value="" style="verticalLabelPosition=bottom;html=1;verticalAlign=top;align=center;strokeColor=none;fillColor=#00BEF2;shape=mxgraph.azure.sql_database;" vertex="1" parent="1">
          <mxGeometry x="490.25" y="700" width="37.5" height="50" as="geometry" />
        </mxCell>
        <mxCell id="vZi44rwne3J4QW1KmAb9-5" value="Inbound Space" style="rounded=1;whiteSpace=wrap;html=1;" vertex="1" parent="1">
          <mxGeometry x="340" y="460" width="120" height="60" as="geometry" />
        </mxCell>
        <mxCell id="vZi44rwne3J4QW1KmAb9-6" value="CC" style="shape=mxgraph.sap.icon;labelPosition=center;verticalLabelPosition=bottom;align=center;verticalAlign=top;strokeWidth=1;strokeColor=#D5DADD;fillColor=#EDEFF0;gradientColor=#FCFCFC;gradientDirection=west;aspect=fixed;SAPIcon=Cloud_Connector2" vertex="1" parent="1">
          <mxGeometry x="484" y="560" width="50" height="50" as="geometry" />
        </mxCell>
        <mxCell id="vZi44rwne3J4QW1KmAb9-7" value="" style="rounded=1;whiteSpace=wrap;html=1;strokeColor=#0070F2;fillColor=#EBF8FF;arcSize=32;absoluteArcSize=1;strokeWidth=1.5;" vertex="1" parent="1">
          <mxGeometry x="484" y="220" width="486" height="310" as="geometry" />
        </mxCell>
        <mxCell id="vZi44rwne3J4QW1KmAb9-8" value="Datasphere" style="image;image=img/lib/sap/SAP_Logo.svg;editableCssRules=.*;part=1;verticalLabelPosition=middle;labelBackgroundColor=none;verticalAlign=middle;imageAspect=0;labelPosition=right;align=left;fontSize=16;fontStyle=1;spacingLeft=0;fontColor=#002A86;spacing=0;" vertex="1" parent="vZi44rwne3J4QW1KmAb9-7">
          <mxGeometry width="37" height="19" relative="1" as="geometry">
            <mxPoint x="20" y="20" as="offset" />
          </mxGeometry>
        </mxCell>
      </root>
    </mxGraphModel>
  </diagram>
</mxfile>
